<svg width="166" height="34" viewBox="0 0 166 34" fill="none" xmlns="http://www.w3.org/2000/svg">
<path d="M12.2989 12.3852V20.9267H9.62113V33.1933H0V0.806699H9.62113V12.3852H12.2989ZM23.5552 0.806699V33.1933H13.934V0.806699H23.5552Z" fill="#303030"/>
<path d="M47.2999 13.4054V20.6183H41.0201C40.167 20.6183 39.5588 20.7448 39.1954 20.9979C38.8479 21.251 38.6741 21.6781 38.6741 22.2791C38.6741 22.9593 38.8558 23.4101 39.2191 23.6315C39.5825 23.8372 40.325 23.94 41.4467 23.94H47.9161V33.1933H40.3566C36.802 33.1933 34.0847 32.3471 32.2047 30.6546C30.3247 28.9463 29.3847 26.4866 29.3847 23.2756V10.582C29.3847 7.48174 30.2694 5.07746 32.0388 3.36916C33.824 1.66085 36.3281 0.806699 39.5509 0.806699H47.9161V10.1075H41.7784C40.1196 10.1075 39.2902 10.6453 39.2902 11.7209C39.2902 12.3536 39.4877 12.7965 39.8827 13.0495C40.2776 13.2868 40.9806 13.4054 41.9917 13.4054H47.2999Z" fill="#303030"/>
<path d="M63.0824 9.51431V33.1933H53.4612V0.806699H65.8076C69.5675 0.806699 72.4823 1.73994 74.5519 3.60642C76.8584 5.69435 78.0117 8.3438 78.0117 11.5548C78.0117 14.829 76.582 17.5892 73.7225 19.8353L79.2677 33.1933H69.1726L64.5042 22.7537V14.4257H65.2625C67.2847 14.4257 68.2958 13.5557 68.2958 11.8158C68.2958 10.2815 67.1267 9.51431 64.7886 9.51431H63.0824Z" fill="#303030"/>
<path d="M81.8507 0.806699H91.4718V20.0488C91.4718 21.5515 91.7088 22.5559 92.1827 23.0621C92.6725 23.5525 93.6283 23.7976 95.0501 23.7976H95.5477V33.1933H92.9884C89.4812 33.1933 86.7481 32.1731 84.7891 30.1326C82.8302 28.0763 81.8507 25.2291 81.8507 21.5911V0.806699Z" fill="#303030"/>
<path d="M116.07 13.4054V20.6183H109.79C108.937 20.6183 108.329 20.7448 107.965 20.9979C107.618 21.251 107.444 21.6781 107.444 22.2791C107.444 22.9593 107.626 23.4101 107.989 23.6315C108.352 23.8372 109.095 23.94 110.216 23.94H116.686V33.1933H109.126C105.572 33.1933 102.854 32.3471 100.974 30.6546C99.0945 28.9463 98.1545 26.4866 98.1545 23.2756V10.582C98.1545 7.48174 99.0392 5.07746 100.809 3.36916C102.594 1.66085 105.098 0.806699 108.321 0.806699H116.686V10.1075H110.548C108.889 10.1075 108.06 10.6453 108.06 11.7209C108.06 12.3536 108.257 12.7965 108.652 13.0495C109.047 13.2868 109.75 13.4054 110.761 13.4054H116.07Z" fill="#303030"/>
<path d="M121.567 33.1933V12.1717C121.567 8.48616 122.665 5.53617 124.861 3.3217C127.073 1.10723 130.012 0 133.677 0C137.326 0 140.115 1.0756 142.042 3.2268C143.985 5.378 144.957 8.47034 144.957 12.5038V33.1933H135.336V12.5038C135.336 10.5266 134.633 9.53803 133.227 9.53803C131.868 9.53803 131.189 10.5266 131.189 12.5038V33.1933H121.567Z" fill="#303030"/>
<path d="M166 0.664341V9.89393C165.305 9.65666 164.768 9.53803 164.389 9.53803C163.662 9.53803 163.038 9.80693 162.516 10.3447C161.995 10.8825 161.734 11.5311 161.734 12.2903C161.734 12.9388 162.019 13.7613 162.588 14.7579L163.322 16.0391C164.649 18.3485 165.313 20.5787 165.313 22.7299C165.313 25.8776 164.191 28.5429 161.948 30.7258C159.72 32.9086 156.995 34 153.772 34C152.224 34 150.692 33.6441 149.175 32.9323V23.5604C150.091 24.1456 150.905 24.4382 151.616 24.4382C152.453 24.4382 153.148 24.201 153.701 23.7264C154.27 23.2361 154.554 22.6271 154.554 21.8995C154.554 21.425 154.104 20.3889 153.203 18.7913C151.766 16.2605 151.047 13.7297 151.047 11.1989C151.047 8.14608 152.129 5.52035 154.294 3.3217C156.474 1.10723 159.072 0 162.09 0C163.417 0 164.72 0.221447 166 0.664341Z" fill="#303030"/>
</svg>
